<svg version="1.0" xmlns="http://www.w3.org/2000/svg"
 width="653.000000pt" height="343.000000pt" viewBox="0 0 653.000000 343.000000"
 preserveAspectRatio="xMidYMid meet">

<g transform="translate(0.000000,343.000000) scale(0.100000,-0.100000)"
fill="#000000" stroke="none">
<path d="M1910 2990 l0 -180 455 0 455 0 0 -880 0 -880 215 0 215 0 0 880 0
880 460 0 460 0 0 180 0 180 -1130 0 -1130 0 0 -180z"/>
<path d="M1363 2601 c-92 -34 -163 -100 -182 -168 -7 -25 -11 -239 -11 -603
l0 -565 24 -51 c28 -60 81 -106 156 -137 54 -21 67 -22 505 -25 472 -4 530 0
610 40 52 26 111 83 138 133 19 35 22 59 25 203 l4 162 -221 0 -221 0 0 -90 0
-90 -290 0 -290 0 0 430 0 430 288 -2 287 -3 3 -92 3 -93 219 0 220 0 0 143
c0 168 -13 223 -65 285 -22 25 -63 54 -103 74 l-67 33 -490 2 c-460 3 -493 1
-542 -16z"/>
<path d="M3440 1835 l0 -785 220 0 220 0 0 280 0 280 285 0 285 0 0 180 0 180
-285 0 -285 0 0 150 0 150 510 0 510 0 0 175 0 175 -730 0 -730 0 0 -785z"/>
<path d="M1413 883 c-36 -7 -80 -58 -88 -102 -14 -82 41 -146 125 -146 57 0
108 29 89 51 -10 13 -15 13 -35 -1 -49 -32 -107 -14 -130 41 -12 29 -12 39 0
68 22 53 79 73 122 42 13 -10 23 -11 31 -4 21 17 15 28 -22 44 -34 14 -50 15
-92 7z"/>
<path d="M1804 876 c-68 -30 -95 -116 -59 -185 36 -70 145 -79 202 -17 61 66
39 168 -43 202 -41 17 -60 17 -100 0z m107 -55 c58 -59 24 -151 -56 -151 -51
0 -85 36 -85 90 0 84 82 119 141 61z"/>
<path d="M2650 877 c-32 -16 -47 -58 -32 -91 8 -18 27 -30 68 -43 31 -9 59
-23 61 -30 14 -37 -62 -58 -103 -29 -13 10 -23 11 -31 4 -21 -17 -15 -26 32
-43 77 -30 145 0 145 62 0 30 -29 54 -88 73 -35 11 -48 21 -50 37 -4 28 34 40
80 24 24 -9 33 -8 39 1 11 18 3 26 -39 38 -47 13 -52 12 -82 -3z"/>
<path d="M3060 877 c-65 -23 -100 -113 -67 -177 17 -33 74 -70 109 -70 100 0
165 96 123 183 -29 62 -97 88 -165 64z m91 -37 c29 -16 51 -67 44 -101 -8 -37
-49 -69 -87 -69 -41 0 -88 48 -88 90 0 62 76 109 131 80z"/>
<path d="M4240 760 l0 -130 25 0 25 0 0 130 0 130 -25 0 -25 0 0 -130z"/>
<path d="M4570 877 c-71 -25 -101 -117 -60 -184 83 -137 294 -24 225 120 -29
62 -97 88 -165 64z m91 -37 c29 -16 51 -67 44 -101 -4 -16 -18 -38 -32 -49
-38 -29 -79 -26 -115 10 -26 27 -30 36 -25 68 11 64 75 100 128 72z"/>
<path d="M2190 754 c0 -114 2 -125 18 -122 14 3 17 17 20 91 l3 88 70 -90 c39
-50 77 -91 85 -91 11 0 14 23 14 125 0 117 -1 125 -20 125 -17 0 -19 -8 -22
-82 l-3 -83 -64 83 c-39 51 -71 82 -82 82 -18 0 -19 -9 -19 -126z"/>
<path d="M3440 755 c0 -118 1 -125 20 -125 17 0 20 7 20 45 0 43 1 45 29 45
24 0 36 -9 62 -45 18 -25 40 -45 51 -45 25 0 23 10 -10 56 l-28 39 28 23 c38
32 39 82 2 111 -22 17 -41 21 -100 21 l-74 0 0 -125z m134 85 c18 -6 26 -17
26 -33 0 -35 -19 -47 -72 -47 l-48 0 0 45 c0 45 0 45 34 45 19 0 46 -4 60 -10z"/>
<path d="M3840 865 c0 -12 14 -15 70 -15 39 0 70 -3 70 -6 0 -3 -31 -43 -70
-89 -38 -46 -70 -93 -70 -104 0 -20 6 -21 100 -21 93 0 100 1 100 20 0 18 -7
20 -70 20 -38 0 -70 3 -70 8 0 4 32 46 70 92 39 46 70 90 70 97 0 10 -26 13
-100 13 -82 0 -100 -3 -100 -15z"/>
<path d="M4790 360 l0 -170 30 0 30 0 0 170 0 170 -30 0 -30 0 0 -170z"/>
<path d="M590 495 c0 -23 3 -25 50 -25 l50 0 0 -140 0 -140 30 0 30 0 0 140 0
140 50 0 c47 0 50 2 50 25 l0 25 -130 0 -130 0 0 -25z"/>
<path d="M920 355 l0 -165 25 0 c24 0 25 3 25 60 l0 60 38 0 c34 -1 41 -6 79
-60 37 -51 48 -60 74 -60 34 0 34 -1 -18 71 l-33 47 35 35 c27 27 35 43 35 71
0 79 -45 106 -176 106 l-84 0 0 -165z m190 95 c25 -25 25 -41 2 -70 -15 -18
-29 -23 -78 -24 l-59 -1 -3 58 -3 57 61 0 c47 0 64 -4 80 -20z"/>
<path d="M1335 433 c-21 -49 -53 -123 -71 -165 l-33 -78 28 0 c23 0 31 7 44
40 l15 40 81 0 81 0 16 -40 c14 -34 21 -40 45 -40 l28 0 -36 83 c-19 45 -51
119 -71 165 -31 74 -38 82 -62 82 -24 0 -30 -9 -65 -87z m75 3 c0 -2 11 -29
25 -60 l25 -56 -60 0 c-58 0 -59 1 -51 23 28 69 42 97 51 97 6 0 10 -2 10 -4z"/>
<path d="M1651 494 c-25 -21 -31 -33 -31 -65 0 -51 22 -72 96 -94 67 -19 84
-30 84 -55 0 -43 -69 -57 -129 -25 -25 13 -36 14 -47 4 -22 -18 -17 -27 26
-49 58 -30 130 -27 169 6 25 21 31 33 31 67 0 54 -20 73 -101 97 -79 24 -98
50 -59 82 25 20 67 17 106 -7 18 -11 22 -11 32 6 17 27 16 28 -23 45 -56 23
-118 18 -154 -12z"/>
<path d="M1930 356 l0 -166 25 0 c24 0 25 3 25 55 l0 55 59 0 c99 0 158 61
135 141 -16 55 -53 74 -155 77 l-89 4 0 -166z m168 98 c26 -18 29 -60 5 -86
-12 -13 -30 -18 -70 -18 l-53 0 0 60 0 60 48 0 c27 0 57 -7 70 -16z"/>
<path d="M2310 498 c-58 -40 -75 -72 -75 -143 0 -71 17 -103 76 -143 46 -32
138 -28 188 7 37 27 70 91 71 136 0 45 -40 116 -79 142 -47 32 -135 32 -181 1z
m146 -39 c72 -36 70 -175 -3 -208 -96 -44 -191 38 -162 141 20 73 92 102 165
67z"/>
<path d="M2640 356 l0 -166 30 0 30 0 0 60 0 60 35 0 c31 0 39 -6 78 -60 36
-51 46 -60 74 -60 l32 0 -41 60 -42 60 33 28 c24 20 34 38 38 68 5 36 1 46
-25 75 l-30 34 -106 3 -106 4 0 -166z m193 100 c21 -16 23 -69 2 -86 -8 -6
-41 -14 -75 -17 l-60 -6 0 62 0 61 58 0 c31 0 65 -7 75 -14z"/>
<path d="M2960 496 c0 -23 4 -25 53 -28 l52 -3 3 -137 3 -138 24 0 25 0 0 140
0 140 50 0 c47 0 50 2 50 25 l0 25 -130 0 -130 0 0 -24z"/>
<path d="M3340 498 c-58 -40 -75 -72 -75 -143 0 -71 17 -103 76 -143 46 -32
138 -28 188 7 37 27 70 91 71 136 0 45 -40 116 -79 142 -47 32 -135 32 -181 1z
m124 -32 c49 -20 76 -60 76 -113 0 -38 -5 -50 -34 -79 -28 -28 -42 -34 -75
-34 -54 0 -85 21 -105 71 -26 65 6 140 67 158 18 5 33 10 35 10 1 1 17 -5 36
-13z"/>
<path d="M3820 355 l0 -165 25 0 c24 0 25 2 25 70 l0 70 86 0 c83 0 85 1 82
23 -3 20 -9 22 -85 25 l-83 3 0 44 0 45 95 0 c95 0 95 0 95 25 l0 25 -120 0
-120 0 0 -165z"/>
<path d="M4145 388 c-96 -221 -90 -198 -58 -198 23 0 31 7 45 40 l17 40 79 0
79 0 18 -40 c15 -33 23 -40 46 -40 l27 0 -71 165 c-66 154 -73 165 -98 165
-24 0 -31 -11 -84 -132z m111 7 c13 -31 24 -60 24 -65 0 -6 -25 -10 -56 -10
-41 0 -55 3 -51 13 34 80 50 117 54 117 2 0 15 -25 29 -55z"/>
<path d="M4512 503 c-49 -24 -75 -68 -80 -134 -7 -101 45 -168 139 -177 59 -5
88 1 123 29 26 20 26 22 10 40 -16 18 -17 18 -42 -1 -39 -31 -106 -27 -142 8
-99 99 21 263 136 187 25 -16 27 -16 46 3 20 19 20 19 -15 41 -42 26 -127 28
-175 4z"/>
<path d="M4940 355 l0 -165 110 0 110 0 0 25 c0 25 -1 25 -85 25 l-85 0 0 140
0 140 -25 0 -25 0 0 -165z"/>
<path d="M5230 355 l0 -165 120 0 120 0 0 25 c0 25 0 25 -95 25 l-95 0 0 45 0
45 85 0 c84 0 85 0 85 25 0 25 -1 25 -85 25 l-85 0 0 45 0 45 95 0 c95 0 95 0
95 25 l0 25 -120 0 -120 0 0 -165z"/>
</g>
</svg>
